<svg width="20" height="20" viewBox="0 0 20 20" xmlns="http://www.w3.org/2000/svg">
<path d="M15.5893 5.58925C15.9147 5.26382 15.9147 4.73618 15.5893 4.41074C15.2638 4.0853 14.7362 4.0853 14.4107 4.41074L10 8.82149L5.58925 4.41074C5.26382 4.0853 4.73618 4.0853 4.41074 4.41074C4.0853 4.73618 4.0853 5.26382 4.41074 5.58925L8.82149 10L4.41074 14.4107C4.0853 14.7362 4.0853 15.2638 4.41074 15.5893C4.73618 15.9147 5.26382 15.9147 5.58925 15.5893L10 11.1785L14.4107 15.5893C14.7362 15.9147 15.2638 15.9147 15.5893 15.5893C15.9147 15.2638 15.9147 14.7362 15.5893 14.4107L11.1785 10L15.5893 5.58925Z" fill="black"/>
</svg>
